# xmcd
#
# Track frame offsets:
#	150
#	22282
#	58940
#	76847
#	104283
#	122900
#	155830
#	173715
#	194932
#	232934
#
# Disc length: 3755 seconds
#
# Revision: 1
# Processed by: cddbd v1.4PL0 Copyright (c) Steve Scherf et al.
# Submitted via: EasyCDDAExtractor 5.0.7
#
DISCID=8c0ea90a
DTITLE=Don Marsh Orchestra Panpipes - Beside Still Waters (Volume 2)
DYEAR=1995
DGENRE=Bluegrass
TTITLE0=How Great Thou Art
TTITLE1=What A Friend We Have In Jesus (Medley)
TTITLE2=Great Is Thy Faithfulness
TTITLE3=There Is A Balm In Gilead (Medley)
TTITLE4=Blessed Assurance (Medley)
TTITLE5=O, How I Love Jesus (Medley)
TTITLE6=Ho, Everyone That Is Thirsty
TTITLE7=How Firm A Foundation (Medley)
TTITLE8=Moment By Moment (Medley)
TTITLE9=Interactive Track
EXTD=
EXTT0=
EXTT1=
EXTT2=
EXTT3=
EXTT4=
EXTT5=
EXTT6=
EXTT7=
EXTT8=
EXTT9=
PLAYORDER=
